<?xml version="1.0" encoding="UTF-8"?>
<svg width="512px" height="512px" viewBox="0 0 512 512" version="1.1" xmlns="http://www.w3.org/2000/svg" xmlns:xlink="http://www.w3.org/1999/xlink">
    <title>Combined Shape</title>
    <g id="Page-1" stroke="none" stroke-width="1" fill="none" fill-rule="evenodd">
        <g id="Artboard" fill="#FFFFFF">
            <path d="M256,0 C397.384896,0 512,114.615104 512,256 C512,397.384896 397.384896,512 256,512 C114.615104,512 0,397.384896 0,256 C0,114.615104 114.615104,0 256,0 Z M353.773617,219.186261 C350.467599,219.186261 347.604255,220.395927 345.182918,222.81459 C342.76693,225.232584 341.557933,228.095927 341.557933,231.403951 L341.557933,231.403951 L341.557933,255.842675 L341.55503,256.601085 C341.376951,279.822763 333.007262,299.71036 316.449848,316.267112 C299.717812,333.004498 279.574772,341.373191 256.026748,341.373191 C232.479392,341.373191 212.338359,333.004498 195.600304,316.267112 C178.864255,299.535076 170.4969,279.390699 170.4969,255.842675 L170.4969,255.842675 L170.4969,231.403951 L170.491922,231.038223 C170.405638,227.884438 169.197703,225.143028 166.869909,222.81459 C164.451246,220.395927 161.590578,219.186261 158.27921,219.186261 C154.967842,219.186261 152.10383,220.395927 149.686505,222.81459 C147.267173,225.232584 146.058176,228.095927 146.058176,231.403951 L146.058176,231.403951 L146.058176,255.842675 L146.060993,256.685434 C146.246884,284.460283 155.634342,308.649475 174.218176,329.249119 C192.990395,350.057508 216.186687,361.988997 243.80772,365.041581 L243.80772,365.041581 L243.80772,390.245289 L194.933617,390.245289 L194.567746,390.250272 C191.412767,390.336649 188.671357,391.545872 186.342918,393.874954 C183.924255,396.291611 182.71459,399.156292 182.71459,402.465653 C182.71459,405.769666 183.924255,408.639696 186.342918,411.056353 C188.760912,413.473009 191.624255,414.686018 194.933617,414.686018 L194.933617,414.686018 L317.116535,414.686018 L317.482351,414.68103 C320.637004,414.594562 323.382015,413.384147 325.707234,411.056353 C328.128571,408.640365 329.338906,405.770334 329.338906,402.465653 C329.338906,399.15696 328.128571,396.29228 325.707234,393.874954 C323.293252,391.456292 320.425897,390.245289 317.116535,390.245289 L317.116535,390.245289 L268.24845,390.245289 L268.24845,365.041581 L269.083955,364.94636 C296.332923,361.747051 319.248727,349.847322 337.833313,329.249119 C356.607538,308.441398 365.998663,283.971246 365.998663,255.842675 L365.998663,255.842675 L365.998663,231.403951 L365.993674,231.038303 C365.9072,227.885249 364.696618,225.145604 362.364316,222.81459 C359.953009,220.395927 357.082979,219.186261 353.773617,219.186261 Z M256.027416,97 C239.226505,97 224.844924,102.985471 212.880669,114.94772 C200.915745,126.910638 194.934286,141.293556 194.934286,158.095137 L194.934286,158.095137 L194.934286,255.842675 L194.937655,256.531765 C195.099356,273.037312 201.082286,287.195006 212.880669,298.990091 C224.842918,310.948997 239.226505,316.931125 256.027416,316.931125 C272.830334,316.931125 287.209909,310.948997 299.173495,298.990091 C311.135076,287.031185 317.116535,272.644255 317.116535,255.842675 L317.116535,255.842675 L317.116535,158.095137 L317.11317,157.406024 C316.951664,140.900012 310.975835,126.748741 299.173495,114.94772 C287.209909,102.985471 272.830334,97 256.027416,97 Z" id="Combined-Shape"></path>
        </g>
    </g>
</svg>